<svg width="89" height="89" viewBox="0 0 89 89" fill="none" xmlns="http://www.w3.org/2000/svg">
<path d="M40.0145 0.21382C40.515 0.16159 41.2984 0.0963021 41.7554 0.0658344C42.2124 0.0353668 43.3875 0.00489913 44.3668 0.000546611C45.5419 -0.00380591 46.4994 0.0179567 47.1741 0.0614819C47.7355 0.0963021 48.5799 0.165942 49.0456 0.21382C49.5113 0.261698 50.3164 0.361806 50.83 0.435799C51.3436 0.505439 52.127 0.636015 52.5709 0.718713C53.0149 0.801411 53.6895 0.940691 54.0725 1.02339C54.4555 1.10609 55.1388 1.27148 55.5958 1.389C56.0528 1.50217 56.8449 1.7285 57.3585 1.88084C57.8721 2.03753 58.6642 2.29433 59.1212 2.45537C59.5782 2.61641 60.3181 2.89497 60.7751 3.07343C61.2321 3.25188 61.9154 3.53915 62.2984 3.70454C62.6814 3.87429 63.4648 4.2399 64.0394 4.52282C64.6139 4.80573 65.3581 5.18875 65.6932 5.37156C66.0284 5.55872 66.5376 5.84598 66.8248 6.01573C67.1121 6.18113 67.6692 6.52062 68.0653 6.76872C68.4613 7.01246 69.1446 7.46077 69.5886 7.76544C70.0325 8.07012 70.6984 8.5489 71.0684 8.82746C71.4383 9.10167 71.9954 9.53257 72.3088 9.78502C72.6222 10.0375 73.1488 10.4771 73.4839 10.7643C73.8191 11.056 74.337 11.5173 74.6373 11.7915C74.9376 12.0657 75.5426 12.6533 75.9865 13.0973C76.4305 13.5456 77.0485 14.1898 77.3618 14.538C77.6752 14.8818 78.1235 15.3911 78.3585 15.6653C78.5936 15.9395 79.007 16.44 79.2725 16.7752C79.5424 17.1103 79.9907 17.6979 80.2779 18.0809C80.5608 18.4639 81.1092 19.2474 81.4922 19.8219C81.8796 20.3965 82.4106 21.2278 82.6717 21.6718C82.9372 22.1157 83.3158 22.7686 83.5161 23.1298C83.7163 23.4868 84.1036 24.2441 84.3822 24.8056C84.6607 25.367 85.0263 26.1331 85.1874 26.503C85.3527 26.873 85.6487 27.5781 85.8446 28.07C86.0404 28.5618 86.332 29.3322 86.493 29.7892C86.6541 30.2462 86.9239 31.0688 87.0893 31.6173C87.2547 32.1657 87.5115 33.0884 87.6551 33.6629C87.7988 34.2375 87.9946 35.0906 88.0904 35.5563C88.1861 36.022 88.321 36.7489 88.3907 37.1667C88.4603 37.5846 88.5561 38.2331 88.6083 38.6031C88.6562 38.973 88.7345 39.6694 88.7824 40.1482C88.8303 40.627 88.8999 41.5192 88.9347 42.1286C88.9695 42.738 89 43.8043 89 44.5007C89 45.1971 88.9826 46.1155 88.9565 46.5464C88.9304 46.9773 88.8825 47.6998 88.8477 48.1568C88.8085 48.6139 88.7302 49.3973 88.6692 49.8979C88.6083 50.3984 88.4908 51.2123 88.4124 51.7042C88.3297 52.196 88.1861 52.9794 88.0904 53.4452C87.9946 53.9109 87.8162 54.6856 87.6986 55.1644C87.5811 55.6432 87.3766 56.4049 87.2417 56.8619C87.1111 57.3189 86.8804 58.0501 86.7324 58.4941C86.5844 58.938 86.3277 59.6606 86.1623 60.1045C85.9969 60.5485 85.7009 61.2797 85.5094 61.7367C85.3136 62.1937 85.0002 62.8988 84.813 63.3036C84.6259 63.7084 84.2821 64.4048 84.0514 64.8488C83.8207 65.2927 83.4116 66.0414 83.1418 66.5114C82.8676 66.9859 82.4976 67.6126 82.3105 67.9042C82.1277 68.2002 81.7838 68.7312 81.5444 69.0925C81.3051 69.4494 80.9134 70.0196 80.6696 70.3547C80.4302 70.6898 80.0255 71.2383 79.7687 71.5734C79.5119 71.9086 79.0331 72.5049 78.7024 72.9009C78.3716 73.297 77.8667 73.8846 77.5795 74.2067C77.2922 74.5288 76.548 75.3035 75.9212 75.9259C75.2988 76.5527 74.5241 77.297 74.2021 77.5842C73.88 77.8715 73.3098 78.3633 72.9399 78.6724C72.5699 78.9814 72.0128 79.4341 71.6995 79.6735C71.3861 79.9128 70.8508 80.3176 70.5026 80.5701C70.1544 80.8225 69.5494 81.2404 69.1534 81.5059C68.7573 81.7714 68.1523 82.1631 67.8041 82.3764C67.4559 82.594 66.8901 82.9335 66.5419 83.1294C66.1938 83.3296 65.5279 83.6952 65.0621 83.9433C64.5965 84.187 63.8435 84.5657 63.3865 84.779C62.9295 84.9922 62.2157 85.3143 61.7979 85.4928C61.3801 85.6712 60.6445 85.9628 60.1658 86.1457C59.687 86.3241 58.9123 86.6027 58.4466 86.755C57.9809 86.9117 57.2541 87.138 56.8362 87.2599C56.4184 87.3818 55.722 87.5689 55.2912 87.6734C54.8603 87.7822 54.2335 87.9302 53.8984 88.0042C53.5633 88.0738 52.9191 88.2044 52.4621 88.2871C52.0051 88.3698 51.2914 88.4873 50.8735 88.5439C50.4557 88.6048 49.8464 88.6832 49.5243 88.7223C49.2022 88.7572 48.5929 88.8137 48.1751 88.8486C47.7573 88.8877 46.9738 88.9356 46.4342 88.9661C45.8292 88.9966 44.8673 89.0096 43.9098 88.9922C43.0611 88.9791 41.9425 88.9356 41.429 88.9008C40.9154 88.8616 40.132 88.7876 39.688 88.7398C39.2441 88.6919 38.5521 88.6048 38.143 88.5439C37.7338 88.4873 37.0201 88.3698 36.5544 88.2827C36.0887 88.2 35.3923 88.0608 35.0093 87.9781C34.6263 87.891 34.0779 87.7648 33.7906 87.6951C33.5034 87.6212 32.8984 87.4601 32.4414 87.3295C31.9844 87.2033 31.2445 86.977 30.7875 86.829C30.3305 86.681 29.5384 86.4025 29.0248 86.2109C28.5112 86.0194 27.6887 85.6886 27.1968 85.4797C26.705 85.2708 25.9216 84.9182 25.4559 84.6963C24.9902 84.4743 24.2764 84.1174 23.8673 83.8997C23.4582 83.6865 22.8053 83.3252 22.4093 83.0945C22.0132 82.8682 21.4082 82.5026 21.06 82.2893C20.7119 82.076 20.0982 81.6713 19.6891 81.397C19.2799 81.1185 18.6924 80.7094 18.3834 80.483C18.0743 80.2567 17.5608 79.8693 17.2517 79.6299C16.9427 79.3905 16.3813 78.9379 16.0113 78.6288C15.6414 78.3198 15.0538 77.8106 14.7056 77.5015C14.3574 77.1882 13.6045 76.4613 13.03 75.8868C12.4555 75.3079 11.746 74.5723 11.4588 74.2502C11.1715 73.9281 10.7711 73.4668 10.5666 73.2274C10.362 72.988 10.0008 72.5484 9.76138 72.2481C9.522 71.9477 9.19993 71.5386 9.04325 71.334C8.88656 71.1295 8.5819 70.7203 8.36428 70.42C8.15102 70.1197 7.73754 69.5234 7.45029 69.0925C7.16304 68.6616 6.74086 68.0043 6.51454 67.6344C6.28386 67.2644 5.90086 66.6072 5.65713 66.1763C5.4134 65.7454 5.00428 64.9706 4.74314 64.457C4.482 63.9434 4.1164 63.1861 3.9336 62.7813C3.75081 62.3765 3.48096 61.7585 3.33733 61.4103C3.19371 61.0621 2.94127 60.4266 2.78024 59.9957C2.6192 59.5648 2.345 58.7857 2.17526 58.2677C2.00552 57.7454 1.7792 57.0099 1.67474 56.6356C1.56593 56.2569 1.39184 55.5953 1.28303 55.1644C1.17858 54.7335 1.02189 54.0589 0.934845 53.6628C0.852151 53.2667 0.712876 52.5442 0.630182 52.0524C0.543135 51.5605 0.425622 50.7988 0.369041 50.3549C0.308109 49.9109 0.221062 49.1188 0.173186 48.5921C0.125311 48.0654 0.0600257 47.1862 0.0339117 46.6335C0.00344532 46.0023 -0.00961168 44.9708 0.00779766 43.8478C0.0208547 42.8685 0.064378 41.6803 0.0991967 41.2146C0.138368 40.7489 0.1993 40.0916 0.234119 39.7565C0.27329 39.4213 0.342927 38.8555 0.390803 38.4942C0.438679 38.1373 0.547487 37.4409 0.630182 36.9491C0.712876 36.4573 0.852151 35.7347 0.934845 35.3387C1.01754 34.9426 1.18728 34.2288 1.30479 33.75C1.42666 33.2712 1.60946 32.5748 1.71827 32.2049C1.82707 31.8349 2.01422 31.2255 2.13174 30.8556C2.2536 30.4856 2.46251 29.8763 2.59308 29.5063C2.72365 29.1363 2.9935 28.4312 3.19371 27.9394C3.38956 27.4475 3.68552 26.7555 3.84656 26.3942C4.00759 26.0373 4.34272 25.3279 4.59081 24.8273C4.83889 24.3268 5.24366 23.552 5.49174 23.1081C5.73547 22.6641 6.11412 22.0112 6.32739 21.65C6.54065 21.2931 7.04117 20.5096 7.44159 19.909C7.842 19.3127 8.46874 18.4204 8.83433 17.9286C9.20428 17.4367 9.77009 16.7099 10.0965 16.3181C10.4229 15.9221 10.906 15.3562 11.1672 15.0559C11.4327 14.7556 11.968 14.1767 12.3597 13.7676C12.7514 13.3628 13.3869 12.7273 13.7699 12.3574C14.1529 11.9917 14.7709 11.4216 15.1409 11.0995C15.5108 10.773 16.0897 10.2812 16.4248 10.007C16.7599 9.73278 17.4258 9.21483 17.9046 8.85357C18.3834 8.49667 19.1581 7.9439 19.6238 7.63052C20.0895 7.31714 20.6683 6.93847 20.9077 6.78613C21.1471 6.63814 21.5997 6.36393 21.9087 6.17677C22.2178 5.99397 22.7487 5.68929 23.0839 5.50213C23.419 5.31498 24.1546 4.93195 24.716 4.65339C25.2775 4.37048 26.0826 3.98746 26.5005 3.80465C26.9183 3.61749 27.5276 3.36069 27.8497 3.22576C28.1718 3.09519 28.768 2.86451 29.1771 2.71652C29.5863 2.56853 30.3088 2.31609 30.7875 2.1594C31.2663 2.00271 31.9322 1.79814 32.2673 1.70238C32.6024 1.60227 33.2379 1.43253 33.6818 1.32371C34.1258 1.21055 34.7917 1.05386 35.1616 0.975511C35.5316 0.897166 36.2279 0.757885 36.7067 0.675187C37.1854 0.588137 37.921 0.470619 38.3388 0.414036C38.7566 0.353101 39.5139 0.26605 40.0145 0.21382Z" fill="#001E50"/>
<path d="M41.2545 5.7849C41.5766 5.75878 42.125 5.71961 42.4732 5.7022C42.8214 5.68044 43.6701 5.66302 44.3665 5.66302C45.0628 5.65867 45.9986 5.67608 46.4556 5.69785C46.9126 5.72396 47.6176 5.77184 48.0224 5.80666C48.4272 5.84583 49.067 5.91547 49.4369 5.96335C49.8069 6.01123 50.4162 6.09828 50.7861 6.15921C51.1561 6.22015 51.7567 6.32896 52.1136 6.40295C52.4705 6.47259 53.119 6.61623 53.5499 6.72069C53.9808 6.82515 54.6554 6.99925 55.0514 7.11241C55.4475 7.22123 56.0742 7.41274 56.4442 7.53461C56.8141 7.65648 57.3712 7.84799 57.6846 7.96116C57.998 8.07432 58.5464 8.2876 58.9032 8.43123C59.2601 8.57486 59.8303 8.81425 60.1654 8.96224C60.5006 9.11022 61.1447 9.4149 61.6017 9.63688C62.0587 9.86321 62.8116 10.2593 63.2773 10.5161C63.743 10.7772 64.422 11.1733 64.7789 11.3996C65.1358 11.6216 65.6972 11.9829 66.0193 12.1962C66.3414 12.4138 66.8506 12.7663 67.1509 12.9796C67.4512 13.1929 67.9605 13.5803 68.2825 13.8327C68.6046 14.0852 69.1051 14.4899 69.3924 14.7293C69.6796 14.9644 70.228 15.4475 70.611 15.8C70.994 16.1482 71.7078 16.8447 72.1996 17.3452C72.6915 17.8457 73.3008 18.4899 73.5532 18.7772C73.8056 19.0644 74.2452 19.5824 74.5325 19.9306C74.8154 20.2788 75.2767 20.8664 75.5553 21.2363C75.8338 21.6063 76.2168 22.1373 76.4083 22.4115C76.5999 22.6857 76.9306 23.1863 77.1482 23.5214C77.3615 23.8566 77.6618 24.3353 77.8141 24.5878L77.8398 24.6316C77.9939 24.8944 78.2647 25.3563 78.4539 25.6977C78.6585 26.0546 79.0546 26.8206 79.3375 27.3952C79.6204 27.9697 80.0034 28.7923 80.1862 29.2232C80.3733 29.6541 80.6214 30.2635 80.7389 30.5725C80.8608 30.8815 81.0653 31.443 81.1959 31.813C81.3265 32.1829 81.5485 32.8793 81.6921 33.3581C81.8357 33.8369 82.049 34.6116 82.1665 35.0774C82.284 35.5431 82.4581 36.3091 82.5538 36.7748C82.6452 37.2406 82.7758 37.937 82.8367 38.32C82.8977 38.703 82.9804 39.2514 83.0152 39.5387C83.0544 39.826 83.1196 40.4614 83.1675 40.9533C83.2154 41.4451 83.2763 42.4418 83.3068 43.1731C83.346 44.2133 83.346 44.7835 83.3068 45.8063C83.2763 46.5245 83.2241 47.4472 83.1893 47.852C83.1545 48.2568 83.0848 48.914 83.0326 49.3101C82.9847 49.7062 82.8846 50.3721 82.8193 50.79C82.7497 51.2078 82.6409 51.8041 82.58 52.1175C82.519 52.4309 82.3798 53.0489 82.2709 53.4972C82.1665 53.9499 81.9532 54.7508 81.8009 55.2818C81.6442 55.8171 81.3918 56.6136 81.2394 57.0576C81.0828 57.5016 80.8782 58.0674 80.7824 58.3198C80.6867 58.5723 80.4995 59.0293 80.369 59.3427C80.2428 59.6561 80.0208 60.1609 79.8815 60.4743C79.7422 60.7877 79.4158 61.4536 79.1634 61.9542C78.9066 62.4547 78.5802 63.0728 78.4365 63.3252C78.2973 63.5777 78.0622 63.9781 77.923 64.2175C77.7793 64.4569 77.4921 64.927 77.2788 65.2621C77.0656 65.5972 76.7217 66.1152 76.5172 66.4155C76.3082 66.7158 75.9383 67.2338 75.6859 67.5689C75.4378 67.9041 75.0374 68.422 74.798 68.7224C74.5543 69.0227 74.1234 69.5406 73.8318 69.8758C73.5402 70.2109 73.0005 70.8072 72.6305 71.1989C72.2606 71.595 71.6382 72.2174 71.2421 72.5874C70.8461 72.9617 70.2498 73.5014 69.9147 73.793C69.5795 74.0847 69.0616 74.5156 68.7613 74.7593C68.461 74.9987 67.8952 75.4339 67.4991 75.7256C67.1031 76.0215 66.4197 76.5003 65.9758 76.7963C65.5319 77.0879 64.8268 77.5362 64.409 77.7887C63.9911 78.0411 63.3731 78.3937 63.038 78.5808C62.7028 78.7636 62.0587 79.0944 61.6017 79.3207C61.1447 79.5427 60.5006 79.8474 60.1654 79.9954C59.8303 80.1434 59.3124 80.3653 59.0121 80.4829C58.7117 80.6047 58.1242 80.8267 57.7064 80.9834C57.2885 81.1357 56.6096 81.3664 56.2048 81.497C55.8 81.6232 55.1428 81.8191 54.7468 81.9236C54.3507 82.0324 53.811 82.1716 53.5499 82.2369C53.2887 82.2979 52.7969 82.4067 52.4618 82.4807C52.1267 82.5503 51.452 82.6765 50.9602 82.7592C50.4684 82.8419 49.7546 82.9464 49.3716 82.9943C48.9886 83.0422 48.3401 83.1118 47.9354 83.151C47.5306 83.1858 46.782 83.2337 46.2815 83.2598C45.781 83.2815 44.9758 83.3033 44.497 83.3033C44.0183 83.3033 43.2261 83.2815 42.7343 83.2598C42.2425 83.2337 41.5113 83.1858 41.1022 83.151C40.6931 83.1161 40.0402 83.0465 39.6442 82.9943C39.2481 82.9464 38.5256 82.8376 38.0338 82.7549C37.542 82.6722 36.8195 82.5373 36.4234 82.4502C36.0274 82.3675 35.3615 82.2108 34.9436 82.102C34.5258 81.9932 33.8773 81.8147 33.5074 81.7059C33.1374 81.5971 32.4628 81.3795 32.0058 81.2271C31.5488 81.0705 30.8176 80.8006 30.3737 80.6265C29.9298 80.4524 29.2638 80.1738 28.8939 80.0128C28.5239 79.8518 27.7101 79.46 27.0877 79.1466C26.4653 78.8333 25.6296 78.385 25.2249 78.1543C24.8245 77.9236 24.1716 77.5232 23.7668 77.2707C23.3664 77.0139 22.7832 76.6309 22.4742 76.4133C22.1652 76.1956 21.6342 75.817 21.2991 75.5645C20.9639 75.3121 20.4939 74.9465 20.2545 74.755C20.0151 74.5634 19.5625 74.1891 19.2535 73.9193C18.9445 73.6538 18.4135 73.1793 18.0783 72.8703C17.7432 72.5569 17.1469 71.9737 16.7509 71.5689C16.3548 71.1641 15.8064 70.5809 15.5279 70.2675C15.2537 69.9541 14.862 69.5058 14.6574 69.2621C14.4572 69.0227 14.096 68.57 13.8566 68.261C13.6128 67.952 13.2429 67.4558 13.0253 67.1554C12.8077 66.8551 12.4334 66.3198 12.194 65.9585C11.9546 65.6016 11.5759 65.0009 11.3453 64.631C11.119 64.261 10.749 63.6343 10.5314 63.2382C10.3094 62.8421 9.91771 62.0891 9.65657 61.5625C9.39543 61.0358 9.00807 60.1914 8.79481 59.6909C8.58154 59.1903 8.27688 58.433 8.12019 58.0152C7.96786 57.5973 7.72848 56.9183 7.59791 56.5135C7.46299 56.1087 7.27584 55.4994 7.18009 55.1643C7.08434 54.8291 6.9233 54.2328 6.82755 53.8367C6.72745 53.4407 6.57947 52.7965 6.49677 52.4004C6.41408 52.0043 6.2748 51.2687 6.19211 50.7682C6.10942 50.2677 5.99625 49.4233 5.93532 48.8966C5.87874 48.37 5.8091 47.6736 5.78299 47.3515C5.75688 47.0294 5.72206 46.0283 5.709 45.1317C5.69594 44.1045 5.70465 43.1469 5.73511 42.5419C5.76558 42.0153 5.81781 41.2797 5.85263 40.9097C5.88745 40.5398 5.94403 40.0001 5.97885 39.7128C6.01802 39.4255 6.09636 38.8684 6.15729 38.4723C6.21822 38.0763 6.34444 37.3711 6.43584 36.9054C6.53159 36.4397 6.71874 35.6171 6.85366 35.0774C6.98859 34.5377 7.20185 33.7542 7.32807 33.3364C7.45864 32.9185 7.6719 32.2526 7.81118 31.8565C7.9461 31.4604 8.18113 30.825 8.32911 30.4419C8.47709 30.0589 8.72517 29.4626 8.87315 29.1144C9.02113 28.7662 9.3345 28.0916 9.56517 27.6128C9.8002 27.134 10.1701 26.4115 10.3921 26.0024C10.6184 25.5932 10.9884 24.949 11.2147 24.566C11.4454 24.183 11.9111 23.4561 12.2462 22.9556C12.5813 22.4551 13.0993 21.7195 13.3952 21.3234C13.6912 20.9273 14.1351 20.3615 14.3745 20.0655C14.6182 19.7652 15.097 19.1994 15.4452 18.8033C15.789 18.4072 16.5333 17.6194 17.0991 17.0579C17.6605 16.4921 18.4526 15.7435 18.8618 15.3866C19.2709 15.0297 19.9237 14.4812 20.3198 14.1635C20.7159 13.8458 21.3121 13.3888 21.6473 13.1407C21.9824 12.8969 22.6483 12.4355 23.127 12.1178C23.6058 11.8001 24.2717 11.3735 24.6068 11.1733C24.942 10.9687 25.5861 10.6031 26.0431 10.355C26.5001 10.1069 27.24 9.72393 27.697 9.50195C28.154 9.28432 28.8068 8.97965 29.155 8.83166C29.5032 8.68368 30.0995 8.43558 30.4825 8.2876C30.8655 8.13526 31.5009 7.90457 31.897 7.76529C32.2931 7.63036 32.959 7.41709 33.3768 7.28652C33.7946 7.16029 34.578 6.94702 35.1177 6.81209C35.6574 6.67716 36.48 6.49 36.9457 6.39425C37.4114 6.30285 38.1165 6.17662 38.5126 6.11569C38.9086 6.05475 39.5528 5.9677 39.9488 5.91982C40.3449 5.87195 40.9325 5.81101 41.2545 5.7849Z" fill="white"/>
<path d="M41.5163 11.2867C41.9341 11.2519 42.6218 11.204 43.0396 11.1823C43.4575 11.1605 44.3279 11.1561 44.9764 11.1648C45.6206 11.1779 46.4345 11.204 46.7826 11.2301C47.1308 11.2519 47.7053 11.2998 48.0666 11.3389C48.4235 11.3738 49.0546 11.4565 49.4593 11.513C49.8641 11.574 50.5039 11.6828 50.8738 11.7524C51.2438 11.8264 51.8749 11.9614 52.2753 12.0571C52.741 12.1659 53.0065 12.2486 53.0065 12.2791C53.0065 12.3096 51.1263 17.5369 48.8282 23.8916C46.5302 30.2463 44.6413 35.4563 44.6282 35.4693C44.6152 35.4824 44.6021 35.4824 44.5934 35.4693C44.5847 35.4563 42.6914 30.2376 40.3847 23.8699C38.078 17.5021 36.1847 12.2747 36.176 12.2486C36.1673 12.2225 36.5111 12.1224 36.9551 12.0223C37.3947 11.9222 37.8995 11.809 38.078 11.7742C38.2564 11.7394 38.696 11.661 39.0572 11.6001C39.4141 11.5435 39.9451 11.4608 40.2324 11.426C40.5196 11.3868 41.0985 11.3259 41.5163 11.2867Z" fill="#001E50"/>
<path d="M26.6313 16.3531C27.0274 16.1006 27.467 15.8264 27.6106 15.7393C27.7542 15.6567 27.8804 15.5827 27.8935 15.5783C27.9066 15.5783 28.8902 18.2551 30.0827 21.5282C31.2709 24.8013 33.4776 30.8687 37.7167 42.5422L51.5267 42.5639L51.5876 42.3811C51.6181 42.2767 53.7943 36.2789 56.4231 29.0494C59.0475 21.8198 61.215 15.8525 61.2759 15.6654L61.7199 15.9352C61.9679 16.0832 62.5207 16.4401 62.9516 16.7317C63.3825 17.019 64.0179 17.4673 64.3661 17.7285C64.7143 17.9896 65.2017 18.3726 65.4542 18.5772C65.7066 18.7818 66.1462 19.1561 66.4334 19.4085C66.7207 19.6566 67.3039 20.205 67.7348 20.6272C68.1613 21.0451 68.7576 21.6631 69.0622 21.9983C69.3669 22.3334 69.7238 22.7339 70.1025 23.1735L63.0908 41.4018C59.2303 51.43 56.0575 59.6389 56.0314 59.6389C56.0096 59.6432 54.8519 56.7053 50.9391 46.5726L37.5339 46.5683L35.0096 53.1057C33.6212 56.7009 32.4635 59.6389 32.4417 59.6389C32.4199 59.6345 29.2775 51.5388 25.4649 41.6456C20.5903 28.9971 18.5403 23.6305 18.5665 23.5782C18.5839 23.5391 18.8668 23.1952 19.1888 22.8165C19.5109 22.4379 20.2943 21.6065 20.9298 20.9711C21.5652 20.3356 22.3486 19.5913 22.6707 19.3128C22.9928 19.0386 23.5238 18.599 23.8502 18.3378C24.1766 18.0767 24.7729 17.6283 25.1776 17.3411C25.5824 17.0495 26.2353 16.6099 26.6313 16.3531Z" fill="#001E50"/>
<path d="M67.6347 53.7934C71.8956 42.6728 75.4515 33.3932 75.5342 33.1755V33.1712C75.6212 32.9536 75.7083 32.7708 75.7344 32.7708C75.7605 32.7708 75.9172 33.1886 76.0782 33.6935C76.2436 34.2027 76.4525 34.8948 76.5483 35.2299C76.644 35.5651 76.8007 36.1614 76.8964 36.5575C76.9922 36.9535 77.1184 37.5324 77.1793 37.8415C77.2403 38.1505 77.3273 38.6423 77.3752 38.9296C77.4231 39.2169 77.5014 39.7566 77.5493 40.1265C77.6015 40.4965 77.6712 41.145 77.7103 41.5629C77.7495 41.9981 77.7887 43.0166 77.8017 43.935C77.8191 44.9535 77.8061 45.8588 77.7756 46.3942C77.7452 46.8599 77.6973 47.5258 77.6625 47.874C77.6233 48.2222 77.5449 48.849 77.484 49.2668C77.4231 49.6847 77.3056 50.3811 77.2272 50.812C77.1445 51.2429 76.9878 51.9567 76.879 52.4006C76.7702 52.8446 76.5918 53.4975 76.4873 53.8587C76.3829 54.2156 76.187 54.825 76.0564 55.208C75.9302 55.591 75.6952 56.2265 75.5385 56.6226C75.3862 57.0187 75.1338 57.615 74.9858 57.9501C74.8378 58.2852 74.5157 58.9599 74.2676 59.4517C74.0196 59.9436 73.6409 60.6487 73.4276 61.0186C73.2144 61.3886 72.8618 61.9762 72.6399 62.3244C72.4179 62.6726 72.0218 63.2602 71.7607 63.6301C71.5039 64.0001 71.1209 64.5224 70.9163 64.7836C70.7118 65.0447 70.3331 65.5148 70.072 65.8282C69.8152 66.1415 69.3887 66.629 69.1319 66.9163C68.8707 67.2036 68.3311 67.7607 67.935 68.1568C67.5346 68.5528 66.9078 69.1404 66.5379 69.4669C66.1679 69.789 65.6631 70.2242 65.4106 70.4288C65.1582 70.629 64.6707 71.012 64.3226 71.2688C63.9744 71.5256 63.3781 71.9478 62.9951 72.2046C62.6121 72.4571 62.0724 72.8053 61.7982 72.975C61.524 73.1448 61.0931 73.3972 60.8407 73.5408C60.5882 73.6845 60.2792 73.8542 60.1574 73.9195C60.0311 73.9804 59.918 74.0283 59.9049 74.024C59.8962 74.0153 63.3737 64.9141 67.6347 53.7934Z" fill="#001E50"/>
<path d="M12.3774 35.539C12.4645 35.2299 12.6429 34.6467 12.7735 34.2419C12.9041 33.8415 13.0346 33.515 13.0607 33.515C13.0869 33.515 16.5557 42.5117 20.7644 53.5018C24.9731 64.4963 28.4332 73.5408 28.4811 73.7062L28.3287 73.6235C28.246 73.58 27.8326 73.3406 27.4147 73.0882C26.9969 72.8401 26.331 72.4179 25.935 72.1567C25.5389 71.8912 24.9252 71.456 24.564 71.1861C24.2071 70.9163 23.724 70.5463 23.4976 70.3591C23.2713 70.1763 22.8013 69.7759 22.4531 69.4756C22.1049 69.1709 21.4085 68.5137 20.908 68.0088C20.4031 67.5082 19.7416 66.8118 19.4413 66.4636C19.141 66.1154 18.7275 65.6279 18.5229 65.3755C18.3227 65.1231 17.9658 64.666 17.7308 64.3527C17.4958 64.0393 17.0257 63.3646 16.6862 62.851C16.3424 62.3374 15.8941 61.6193 15.6852 61.2624C15.4719 60.9011 15.102 60.2178 14.8539 59.739C14.6058 59.2602 14.2838 58.603 14.1358 58.2809C13.9921 57.9588 13.7223 57.332 13.5439 56.8881C13.3654 56.4441 13.0912 55.7129 12.9389 55.2559C12.7822 54.7989 12.5559 54.0851 12.4384 53.6672C12.3165 53.2494 12.1598 52.6618 12.0858 52.3615C12.0162 52.0611 11.8987 51.5345 11.829 51.1863C11.755 50.8381 11.6419 50.2026 11.5722 49.7717C11.5026 49.3408 11.4069 48.6357 11.359 48.2048C11.3111 47.7739 11.2502 47.0862 11.2197 46.6814C11.1892 46.2766 11.1675 45.2973 11.1675 44.5052C11.1675 43.7174 11.1892 42.738 11.2197 42.3289C11.2502 41.9198 11.3111 41.2364 11.359 40.8055C11.4069 40.3746 11.4852 39.7653 11.5331 39.4562C11.581 39.1472 11.6767 38.577 11.7507 38.194C11.8247 37.811 11.9596 37.1842 12.051 36.8012C12.1424 36.4182 12.2904 35.848 12.3774 35.539Z" fill="#001E50"/>
<path d="M39.845 64.9707C42.1822 58.912 44.1234 53.8805 44.1582 53.7978L44.2235 53.6455L44.267 53.7543C44.2888 53.8152 46.2168 58.8163 48.554 64.875C52.5625 75.2644 52.8063 75.913 52.8629 76.3221C52.8977 76.5615 52.9107 76.7704 52.889 76.7835C52.8716 76.8009 52.5016 76.8923 52.0707 76.988C51.6398 77.0881 51.0131 77.2187 50.678 77.2796C50.3428 77.3406 49.7335 77.4363 49.3288 77.4929C48.924 77.5539 48.2842 77.6322 47.9142 77.667C47.5443 77.7062 46.9263 77.7541 46.5433 77.7802C46.1603 77.8019 45.2506 77.8237 44.5194 77.8237C43.7882 77.8237 42.8699 77.8019 42.4738 77.7802C42.0778 77.7541 41.451 77.7062 41.0811 77.667C40.7111 77.6322 40.0626 77.5539 39.6448 77.4929C39.227 77.432 38.5306 77.3145 38.0997 77.2318C37.6688 77.1491 37.0029 77.0011 36.6199 76.9053C36.2369 76.8096 35.8496 76.7138 35.5971 76.6485V75.9957L39.845 64.9707Z" fill="#001E50"/>
</svg>
